<mxfile host="app.diagrams.net" modified="2023-01-02T13:10:06.279Z" agent="5.0 (Macintosh; Intel Mac OS X 10_15_7) AppleWebKit/537.36 (KHTML, like Gecko) Chrome/108.0.0.0 Safari/537.36" etag="y1vSgWu_fd4dQ3lN5BA9" version="20.7.4" type="github">
  <diagram id="yPxyJZ8AM_hMuL3Unpa9" name="simple gitflow">
    <mxGraphModel dx="1674" dy="771" grid="1" gridSize="10" guides="1" tooltips="1" connect="1" arrows="1" fold="1" page="1" pageScale="1" pageWidth="1100" pageHeight="850" math="0" shadow="0">
      <root>
        <mxCell id="0" />
        <mxCell id="1" parent="0" />
        <UserObject label="Example diagram for a workflow with a simpler branching model:" link="https://nvie.com/posts/a-successful-git-branching-model/" id="9hBKPDzoitwpIBdzFDQ7-6">
          <mxCell style="text;whiteSpace=wrap;html=1;fontStyle=1;fontSize=17;" parent="1" vertex="1">
            <mxGeometry x="90" y="60" width="542.25" height="30" as="geometry" />
          </mxCell>
        </UserObject>
        <UserObject label="&lt;a href=&quot;https://gist.github.com/jbenet/ee6c9ac48068889b0912&quot;&gt;https://gist.github.com/jbenet/ee6c9ac48068889b0912&lt;/a&gt;" link="https://gist.github.com/jbenet/ee6c9ac48068889b0912" id="9hBKPDzoitwpIBdzFDQ7-8">
          <mxCell style="text;whiteSpace=wrap;html=1;" parent="1" vertex="1">
            <mxGeometry x="124.25" y="90" width="298" height="20" as="geometry" />
          </mxCell>
        </UserObject>
        <UserObject label="See:" link="https://nvie.com/posts/a-successful-git-branching-model/" id="9hBKPDzoitwpIBdzFDQ7-10">
          <mxCell style="text;whiteSpace=wrap;html=1;" parent="1" vertex="1">
            <mxGeometry x="91.5" y="90" width="32.75" height="20" as="geometry" />
          </mxCell>
        </UserObject>
        <mxCell id="9hBKPDzoitwpIBdzFDQ7-23" value="" style="edgeStyle=orthogonalEdgeStyle;rounded=0;html=1;jettySize=auto;orthogonalLoop=1;plain-blue;endArrow=none;endFill=0;strokeWidth=4;strokeColor=#000000;" parent="1" source="9hBKPDzoitwpIBdzFDQ7-25" target="9hBKPDzoitwpIBdzFDQ7-26" edge="1">
          <mxGeometry x="304.5" y="180" as="geometry" />
        </mxCell>
        <mxCell id="9hBKPDzoitwpIBdzFDQ7-24" style="edgeStyle=orthogonalEdgeStyle;curved=1;rounded=0;html=1;exitX=1;exitY=0.5;exitPerimeter=0;entryX=0;entryY=0.5;entryPerimeter=0;endArrow=none;endFill=0;jettySize=auto;orthogonalLoop=1;strokeWidth=4;fontSize=15;" parent="1" source="9hBKPDzoitwpIBdzFDQ7-25" target="9hBKPDzoitwpIBdzFDQ7-30" edge="1">
          <mxGeometry relative="1" as="geometry" />
        </mxCell>
        <mxCell id="9hBKPDzoitwpIBdzFDQ7-25" value="" style="verticalLabelPosition=bottom;verticalAlign=top;html=1;strokeWidth=4;shape=mxgraph.flowchart.on-page_reference;plain-blue;gradientColor=none;fillColor=#B5E3Fe;strokeColor=#000000;" parent="1" vertex="1">
          <mxGeometry x="274.5" y="165" width="30" height="30" as="geometry" />
        </mxCell>
        <mxCell id="9hBKPDzoitwpIBdzFDQ7-41" value="" style="edgeStyle=orthogonalEdgeStyle;curved=1;rounded=0;orthogonalLoop=1;jettySize=auto;html=1;endArrow=none;endFill=0;strokeWidth=4;fontFamily=Courier New;fontSize=16;startArrow=none;" parent="1" source="MGFyyczxm6EWQLgQ8d5Q-1" target="9hBKPDzoitwpIBdzFDQ7-40" edge="1">
          <mxGeometry relative="1" as="geometry" />
        </mxCell>
        <mxCell id="9hBKPDzoitwpIBdzFDQ7-26" value="" style="verticalLabelPosition=bottom;verticalAlign=top;html=1;strokeWidth=4;shape=mxgraph.flowchart.on-page_reference;plain-blue;gradientColor=none;strokeColor=#000000;" parent="1" vertex="1">
          <mxGeometry x="564.5" y="165" width="30" height="30" as="geometry" />
        </mxCell>
        <mxCell id="9hBKPDzoitwpIBdzFDQ7-43" value="" style="edgeStyle=orthogonalEdgeStyle;curved=1;rounded=0;orthogonalLoop=1;jettySize=auto;html=1;endArrow=none;endFill=0;strokeWidth=4;fontFamily=Courier New;fontSize=16;" parent="1" source="9hBKPDzoitwpIBdzFDQ7-40" target="9hBKPDzoitwpIBdzFDQ7-42" edge="1">
          <mxGeometry relative="1" as="geometry" />
        </mxCell>
        <mxCell id="9hBKPDzoitwpIBdzFDQ7-52" value="" style="edgeStyle=orthogonalEdgeStyle;curved=1;rounded=0;orthogonalLoop=1;jettySize=auto;html=1;endArrow=none;endFill=0;strokeWidth=4;fontFamily=Courier New;fontSize=16;entryX=0;entryY=0.5;entryDx=0;entryDy=0;entryPerimeter=0;" parent="1" source="9hBKPDzoitwpIBdzFDQ7-40" target="9hBKPDzoitwpIBdzFDQ7-50" edge="1">
          <mxGeometry relative="1" as="geometry">
            <mxPoint x="689.5" y="275" as="targetPoint" />
          </mxGeometry>
        </mxCell>
        <mxCell id="9hBKPDzoitwpIBdzFDQ7-40" value="" style="verticalLabelPosition=bottom;verticalAlign=top;html=1;strokeWidth=4;shape=mxgraph.flowchart.on-page_reference;plain-blue;gradientColor=none;strokeColor=#000000;" parent="1" vertex="1">
          <mxGeometry x="680" y="165" width="30" height="30" as="geometry" />
        </mxCell>
        <mxCell id="9hBKPDzoitwpIBdzFDQ7-56" value="" style="edgeStyle=orthogonalEdgeStyle;curved=1;rounded=0;orthogonalLoop=1;jettySize=auto;html=1;endArrow=none;endFill=0;strokeWidth=4;fontFamily=Courier New;fontSize=16;" parent="1" source="9hBKPDzoitwpIBdzFDQ7-42" target="9hBKPDzoitwpIBdzFDQ7-55" edge="1">
          <mxGeometry relative="1" as="geometry" />
        </mxCell>
        <mxCell id="9hBKPDzoitwpIBdzFDQ7-42" value="" style="verticalLabelPosition=bottom;verticalAlign=top;html=1;strokeWidth=4;shape=mxgraph.flowchart.on-page_reference;plain-blue;gradientColor=none;strokeColor=#000000;" parent="1" vertex="1">
          <mxGeometry x="779" y="165" width="30" height="30" as="geometry" />
        </mxCell>
        <mxCell id="9hBKPDzoitwpIBdzFDQ7-55" value="" style="verticalLabelPosition=bottom;verticalAlign=top;html=1;strokeWidth=4;shape=mxgraph.flowchart.on-page_reference;plain-blue;gradientColor=none;strokeColor=#000000;" parent="1" vertex="1">
          <mxGeometry x="871.25" y="165" width="30" height="30" as="geometry" />
        </mxCell>
        <mxCell id="9hBKPDzoitwpIBdzFDQ7-27" value="" style="edgeStyle=orthogonalEdgeStyle;rounded=0;html=1;jettySize=auto;orthogonalLoop=1;strokeWidth=4;endArrow=none;endFill=0;" parent="1" target="9hBKPDzoitwpIBdzFDQ7-25" edge="1">
          <mxGeometry x="204.5" y="180" as="geometry">
            <mxPoint x="160" y="180" as="sourcePoint" />
          </mxGeometry>
        </mxCell>
        <mxCell id="9hBKPDzoitwpIBdzFDQ7-28" value="main" style="text;html=1;strokeColor=none;fillColor=none;align=center;verticalAlign=middle;whiteSpace=wrap;overflow=hidden;fontSize=14;fontStyle=1;fontFamily=Courier New;" parent="1" vertex="1">
          <mxGeometry x="90" y="170" width="50" height="20" as="geometry" />
        </mxCell>
        <mxCell id="9hBKPDzoitwpIBdzFDQ7-29" style="edgeStyle=orthogonalEdgeStyle;curved=1;rounded=0;html=1;exitX=1;exitY=0.5;exitPerimeter=0;entryX=0;entryY=0.5;entryPerimeter=0;endArrow=none;endFill=0;jettySize=auto;orthogonalLoop=1;strokeWidth=4;fontSize=15;" parent="1" source="9hBKPDzoitwpIBdzFDQ7-30" target="9hBKPDzoitwpIBdzFDQ7-32" edge="1">
          <mxGeometry relative="1" as="geometry" />
        </mxCell>
        <mxCell id="9hBKPDzoitwpIBdzFDQ7-30" value="" style="verticalLabelPosition=bottom;verticalAlign=top;html=1;strokeWidth=4;shape=mxgraph.flowchart.on-page_reference;plain-purple;gradientColor=none;strokeColor=#000000;" parent="1" vertex="1">
          <mxGeometry x="347.5" y="245" width="30" height="30" as="geometry" />
        </mxCell>
        <mxCell id="9hBKPDzoitwpIBdzFDQ7-32" value="" style="verticalLabelPosition=bottom;verticalAlign=top;html=1;strokeWidth=4;shape=mxgraph.flowchart.on-page_reference;plain-purple;gradientColor=none;strokeColor=#000000;" parent="1" vertex="1">
          <mxGeometry x="419.5" y="245" width="30" height="30" as="geometry" />
        </mxCell>
        <mxCell id="9hBKPDzoitwpIBdzFDQ7-33" style="edgeStyle=orthogonalEdgeStyle;curved=1;rounded=0;html=1;entryX=0;entryY=0.5;entryPerimeter=0;endArrow=none;endFill=0;jettySize=auto;orthogonalLoop=1;strokeWidth=4;fontSize=15;exitX=1;exitY=0.5;exitDx=0;exitDy=0;exitPerimeter=0;" parent="1" source="9hBKPDzoitwpIBdzFDQ7-32" target="9hBKPDzoitwpIBdzFDQ7-26" edge="1">
          <mxGeometry relative="1" as="geometry">
            <mxPoint x="522.5" y="260" as="sourcePoint" />
            <Array as="points">
              <mxPoint x="540" y="260" />
              <mxPoint x="540" y="180" />
            </Array>
          </mxGeometry>
        </mxCell>
        <mxCell id="9hBKPDzoitwpIBdzFDQ7-35" value="JIRA-35--example-feature" style="text;html=1;strokeColor=none;fillColor=none;align=left;verticalAlign=middle;whiteSpace=wrap;overflow=hidden;fontSize=14;fontStyle=1;fontFamily=Courier New;" parent="1" vertex="1">
          <mxGeometry x="97.5" y="250" width="240" height="20" as="geometry" />
        </mxCell>
        <mxCell id="9hBKPDzoitwpIBdzFDQ7-37" value="The main branch&lt;br&gt;" style="text;html=1;strokeColor=none;fillColor=none;align=left;verticalAlign=middle;whiteSpace=wrap;overflow=hidden;fontSize=14;fontStyle=0;fontColor=#009900;" parent="1" vertex="1">
          <mxGeometry x="95.25" y="190" width="132.25" height="20" as="geometry" />
        </mxCell>
        <mxCell id="9hBKPDzoitwpIBdzFDQ7-38" value="Your feature branch" style="text;html=1;strokeColor=none;fillColor=none;align=left;verticalAlign=middle;whiteSpace=wrap;overflow=hidden;fontSize=14;fontStyle=0;fontColor=#009900;" parent="1" vertex="1">
          <mxGeometry x="96.25" y="275" width="202.25" height="20" as="geometry" />
        </mxCell>
        <mxCell id="9hBKPDzoitwpIBdzFDQ7-39" value="Tag: 1.0.0" style="text;html=1;strokeColor=none;fillColor=none;align=center;verticalAlign=middle;whiteSpace=wrap;overflow=hidden;fontSize=14;" parent="1" vertex="1">
          <mxGeometry x="258.38" y="140" width="70" height="20" as="geometry" />
        </mxCell>
        <mxCell id="9hBKPDzoitwpIBdzFDQ7-44" value="Tag: 1.1.0" style="text;html=1;strokeColor=none;fillColor=none;align=center;verticalAlign=middle;whiteSpace=wrap;overflow=hidden;fontSize=14;" parent="1" vertex="1">
          <mxGeometry x="654.5" y="140" width="70" height="20" as="geometry" />
        </mxCell>
        <UserObject label="&lt;a href=&quot;https://www.endoflineblog.com/oneflow-a-git-branching-model-and-workflow&quot;&gt;https://www.endoflineblog.com/oneflow-a-git-branching-model-and-workflow&lt;/a&gt;" link="https://www.endoflineblog.com/oneflow-a-git-branching-model-and-workflow" id="9hBKPDzoitwpIBdzFDQ7-45">
          <mxCell style="text;whiteSpace=wrap;html=1;" parent="1" vertex="1">
            <mxGeometry x="454.5" y="90" width="413.75" height="20" as="geometry" />
          </mxCell>
        </UserObject>
        <UserObject label="or" link="https://nvie.com/posts/a-successful-git-branching-model/" id="9hBKPDzoitwpIBdzFDQ7-46">
          <mxCell style="text;whiteSpace=wrap;html=1;" parent="1" vertex="1">
            <mxGeometry x="430.62" y="90" width="11.63" height="20" as="geometry" />
          </mxCell>
        </UserObject>
        <mxCell id="9hBKPDzoitwpIBdzFDQ7-54" value="" style="edgeStyle=orthogonalEdgeStyle;curved=1;rounded=0;orthogonalLoop=1;jettySize=auto;html=1;endArrow=none;endFill=0;strokeWidth=4;fontFamily=Courier New;fontSize=16;entryX=0;entryY=0.5;entryDx=0;entryDy=0;entryPerimeter=0;" parent="1" source="9hBKPDzoitwpIBdzFDQ7-50" target="9hBKPDzoitwpIBdzFDQ7-55" edge="1">
          <mxGeometry relative="1" as="geometry">
            <mxPoint x="902.25" y="260" as="targetPoint" />
          </mxGeometry>
        </mxCell>
        <mxCell id="9hBKPDzoitwpIBdzFDQ7-50" value="" style="verticalLabelPosition=bottom;verticalAlign=top;html=1;strokeWidth=4;shape=mxgraph.flowchart.on-page_reference;plain-blue;gradientColor=#EA6B66;strokeColor=#B85450;fillColor=#F8CECC;" parent="1" vertex="1">
          <mxGeometry x="779" y="245" width="30" height="30" as="geometry" />
        </mxCell>
        <mxCell id="9hBKPDzoitwpIBdzFDQ7-58" value="Hotfix Commit" style="text;html=1;strokeColor=none;fillColor=none;align=center;verticalAlign=middle;whiteSpace=wrap;overflow=hidden;" parent="1" vertex="1">
          <mxGeometry x="759.5" y="270" width="80" height="30" as="geometry" />
        </mxCell>
        <mxCell id="9hBKPDzoitwpIBdzFDQ7-59" value="Tag: 1.1.1" style="text;html=1;strokeColor=none;fillColor=none;align=center;verticalAlign=middle;whiteSpace=wrap;overflow=hidden;fontSize=14;" parent="1" vertex="1">
          <mxGeometry x="756.75" y="220" width="70" height="20" as="geometry" />
        </mxCell>
        <mxCell id="9hBKPDzoitwpIBdzFDQ7-60" value="Tag: 1.2.0" style="text;html=1;strokeColor=none;fillColor=none;align=center;verticalAlign=middle;whiteSpace=wrap;overflow=hidden;fontSize=14;" parent="1" vertex="1">
          <mxGeometry x="862.25" y="140" width="70" height="20" as="geometry" />
        </mxCell>
        <mxCell id="MGFyyczxm6EWQLgQ8d5Q-1" value="" style="verticalLabelPosition=bottom;verticalAlign=top;html=1;strokeWidth=4;shape=mxgraph.flowchart.on-page_reference;plain-blue;gradientColor=none;strokeColor=#000000;" vertex="1" parent="1">
          <mxGeometry x="632.25" y="165" width="30" height="30" as="geometry" />
        </mxCell>
        <mxCell id="MGFyyczxm6EWQLgQ8d5Q-2" value="" style="edgeStyle=orthogonalEdgeStyle;curved=1;rounded=0;orthogonalLoop=1;jettySize=auto;html=1;endArrow=none;endFill=0;strokeWidth=4;fontFamily=Courier New;fontSize=16;" edge="1" parent="1" source="9hBKPDzoitwpIBdzFDQ7-26" target="MGFyyczxm6EWQLgQ8d5Q-1">
          <mxGeometry relative="1" as="geometry">
            <mxPoint x="594.5" y="180" as="sourcePoint" />
            <mxPoint x="680" y="180" as="targetPoint" />
          </mxGeometry>
        </mxCell>
        <mxCell id="MGFyyczxm6EWQLgQ8d5Q-4" style="edgeStyle=orthogonalEdgeStyle;rounded=0;orthogonalLoop=1;jettySize=auto;html=1;" edge="1" parent="1" source="MGFyyczxm6EWQLgQ8d5Q-3">
          <mxGeometry relative="1" as="geometry">
            <mxPoint x="160" y="490" as="targetPoint" />
          </mxGeometry>
        </mxCell>
        <mxCell id="MGFyyczxm6EWQLgQ8d5Q-3" value="" style="ellipse;html=1;shape=endState;fillColor=strokeColor;" vertex="1" parent="1">
          <mxGeometry x="80" y="470" width="30" height="30" as="geometry" />
        </mxCell>
        <mxCell id="MGFyyczxm6EWQLgQ8d5Q-5" value="Lifeline2" style="shape=umlLifeline;perimeter=lifelinePerimeter;whiteSpace=wrap;html=1;container=1;collapsible=0;recursiveResize=0;outlineConnect=0;" vertex="1" parent="1">
          <mxGeometry x="373" y="420" width="100" height="300" as="geometry" />
        </mxCell>
        <mxCell id="MGFyyczxm6EWQLgQ8d5Q-6" value="" style="html=1;points=[];perimeter=orthogonalPerimeter;fillColor=#808080;" vertex="1" parent="MGFyyczxm6EWQLgQ8d5Q-5">
          <mxGeometry x="45" y="90" width="10" height="120" as="geometry" />
        </mxCell>
        <mxCell id="MGFyyczxm6EWQLgQ8d5Q-9" style="edgeStyle=orthogonalEdgeStyle;rounded=0;orthogonalLoop=1;jettySize=auto;html=1;entryX=0.9;entryY=0.55;entryDx=0;entryDy=0;entryPerimeter=0;" edge="1" parent="MGFyyczxm6EWQLgQ8d5Q-5" source="MGFyyczxm6EWQLgQ8d5Q-6" target="MGFyyczxm6EWQLgQ8d5Q-6">
          <mxGeometry relative="1" as="geometry" />
        </mxCell>
        <mxCell id="MGFyyczxm6EWQLgQ8d5Q-7" value="Lifeline1" style="shape=umlLifeline;perimeter=lifelinePerimeter;whiteSpace=wrap;html=1;container=1;collapsible=0;recursiveResize=0;outlineConnect=0;" vertex="1" parent="1">
          <mxGeometry x="253" y="420" width="155" height="430" as="geometry" />
        </mxCell>
        <mxCell id="MGFyyczxm6EWQLgQ8d5Q-8" value="" style="html=1;points=[];perimeter=orthogonalPerimeter;" vertex="1" parent="MGFyyczxm6EWQLgQ8d5Q-7">
          <mxGeometry x="45" y="90" width="10" height="120" as="geometry" />
        </mxCell>
        <mxCell id="MGFyyczxm6EWQLgQ8d5Q-10" style="edgeStyle=orthogonalEdgeStyle;rounded=0;orthogonalLoop=1;jettySize=auto;html=1;" edge="1" parent="MGFyyczxm6EWQLgQ8d5Q-7" source="MGFyyczxm6EWQLgQ8d5Q-8" target="MGFyyczxm6EWQLgQ8d5Q-8">
          <mxGeometry relative="1" as="geometry" />
        </mxCell>
        <mxCell id="MGFyyczxm6EWQLgQ8d5Q-42" value="" style="shape=mxgraph.cisco.computers_and_peripherals.upc;sketch=0;html=1;pointerEvents=1;dashed=0;fillColor=#036897;strokeColor=#ffffff;strokeWidth=2;verticalLabelPosition=bottom;verticalAlign=top;align=center;outlineConnect=0;" vertex="1" parent="MGFyyczxm6EWQLgQ8d5Q-7">
          <mxGeometry x="64" y="318" width="91" height="86" as="geometry" />
        </mxCell>
        <mxCell id="MGFyyczxm6EWQLgQ8d5Q-43" value="" style="shape=mxgraph.cisco.routers.content_service_router;sketch=0;html=1;pointerEvents=1;dashed=0;fillColor=#036897;strokeColor=#ffffff;strokeWidth=2;verticalLabelPosition=bottom;verticalAlign=top;align=center;outlineConnect=0;" vertex="1" parent="MGFyyczxm6EWQLgQ8d5Q-7">
          <mxGeometry x="17" y="270" width="78" height="53" as="geometry" />
        </mxCell>
        <mxCell id="MGFyyczxm6EWQLgQ8d5Q-14" value="Lifeline2" style="shape=umlLifeline;perimeter=lifelinePerimeter;whiteSpace=wrap;html=1;container=1;collapsible=0;recursiveResize=0;outlineConnect=0;" vertex="1" parent="1">
          <mxGeometry x="500" y="420" width="100" height="300" as="geometry" />
        </mxCell>
        <mxCell id="MGFyyczxm6EWQLgQ8d5Q-15" value="" style="html=1;points=[];perimeter=orthogonalPerimeter;fillColor=#808080;" vertex="1" parent="MGFyyczxm6EWQLgQ8d5Q-14">
          <mxGeometry x="45" y="90" width="10" height="120" as="geometry" />
        </mxCell>
        <mxCell id="MGFyyczxm6EWQLgQ8d5Q-16" style="edgeStyle=orthogonalEdgeStyle;rounded=0;orthogonalLoop=1;jettySize=auto;html=1;entryX=0.9;entryY=0.55;entryDx=0;entryDy=0;entryPerimeter=0;" edge="1" parent="MGFyyczxm6EWQLgQ8d5Q-14" source="MGFyyczxm6EWQLgQ8d5Q-15" target="MGFyyczxm6EWQLgQ8d5Q-15">
          <mxGeometry relative="1" as="geometry" />
        </mxCell>
        <mxCell id="MGFyyczxm6EWQLgQ8d5Q-17" value="Action1" style="html=1;dashed=0;rounded=1;absoluteArcSize=1;arcSize=20;verticalAlign=middle;align=center;" vertex="1" parent="1">
          <mxGeometry x="740" y="630" width="210" height="60" as="geometry" />
        </mxCell>
        <mxCell id="MGFyyczxm6EWQLgQ8d5Q-18" value="" style="group;resizeWidth=0;resizeHeight=0;" vertex="1" parent="MGFyyczxm6EWQLgQ8d5Q-17">
          <mxGeometry width="80" height="20" relative="1" as="geometry">
            <mxPoint x="30" y="-10" as="offset" />
          </mxGeometry>
        </mxCell>
        <mxCell id="MGFyyczxm6EWQLgQ8d5Q-19" value="" style="resizeWidth=0;resizeHeight=0;points=[[0,0],[0.5,0],[1,0]];" vertex="1" parent="MGFyyczxm6EWQLgQ8d5Q-18">
          <mxGeometry width="20" height="20" relative="1" as="geometry">
            <mxPoint as="offset" />
          </mxGeometry>
        </mxCell>
        <mxCell id="MGFyyczxm6EWQLgQ8d5Q-20" value="" style="resizeWidth=0;resizeHeight=0;points=[[0,0],[0.5,0],[1,0]];" vertex="1" parent="MGFyyczxm6EWQLgQ8d5Q-18">
          <mxGeometry width="20" height="20" relative="1" as="geometry">
            <mxPoint x="20" as="offset" />
          </mxGeometry>
        </mxCell>
        <mxCell id="MGFyyczxm6EWQLgQ8d5Q-21" value="" style="resizeWidth=0;resizeHeight=0;points=[[0,0],[0.5,0],[1,0]];" vertex="1" parent="MGFyyczxm6EWQLgQ8d5Q-18">
          <mxGeometry width="20" height="20" relative="1" as="geometry">
            <mxPoint x="40" as="offset" />
          </mxGeometry>
        </mxCell>
        <mxCell id="MGFyyczxm6EWQLgQ8d5Q-22" value="" style="resizeWidth=0;resizeHeight=0;points=[[0,0],[0.5,0],[1,0]];" vertex="1" parent="MGFyyczxm6EWQLgQ8d5Q-18">
          <mxGeometry width="20" height="20" relative="1" as="geometry">
            <mxPoint x="60" as="offset" />
          </mxGeometry>
        </mxCell>
        <mxCell id="MGFyyczxm6EWQLgQ8d5Q-23" value="" style="group;resizeWidth=0;resizeHeight=0;" vertex="1" parent="MGFyyczxm6EWQLgQ8d5Q-17">
          <mxGeometry y="1" width="80" height="20" relative="1" as="geometry">
            <mxPoint x="30" y="-10" as="offset" />
          </mxGeometry>
        </mxCell>
        <mxCell id="MGFyyczxm6EWQLgQ8d5Q-24" value="" style="resizeWidth=0;resizeHeight=0;points=[[0,1],[0.5,1],[1,1]];" vertex="1" parent="MGFyyczxm6EWQLgQ8d5Q-23">
          <mxGeometry width="20" height="20" relative="1" as="geometry">
            <mxPoint as="offset" />
          </mxGeometry>
        </mxCell>
        <mxCell id="MGFyyczxm6EWQLgQ8d5Q-25" value="" style="resizeWidth=0;resizeHeight=0;points=[[0,1],[0.5,1],[1,1]];" vertex="1" parent="MGFyyczxm6EWQLgQ8d5Q-23">
          <mxGeometry width="20" height="20" relative="1" as="geometry">
            <mxPoint x="20" as="offset" />
          </mxGeometry>
        </mxCell>
        <mxCell id="MGFyyczxm6EWQLgQ8d5Q-26" value="" style="resizeWidth=0;resizeHeight=0;points=[[0,1],[0.5,1],[1,1]];" vertex="1" parent="MGFyyczxm6EWQLgQ8d5Q-23">
          <mxGeometry width="20" height="20" relative="1" as="geometry">
            <mxPoint x="40" as="offset" />
          </mxGeometry>
        </mxCell>
        <mxCell id="MGFyyczxm6EWQLgQ8d5Q-27" value="" style="resizeWidth=0;resizeHeight=0;points=[[0,1],[0.5,1],[1,1]];" vertex="1" parent="MGFyyczxm6EWQLgQ8d5Q-23">
          <mxGeometry width="20" height="20" relative="1" as="geometry">
            <mxPoint x="60" as="offset" />
          </mxGeometry>
        </mxCell>
        <mxCell id="MGFyyczxm6EWQLgQ8d5Q-28" value="Class1" style="swimlane;fontStyle=1;align=center;horizontal=1;startSize=30;collapsible=0;html=1;" vertex="1" parent="1">
          <mxGeometry x="790" y="400" width="180" height="140" as="geometry" />
        </mxCell>
        <mxCell id="MGFyyczxm6EWQLgQ8d5Q-29" value="heading1" style="shape=umlFrame;tabPosition=left;html=1;boundedLbl=1;labelInHeader=1;width=80;height=30;swimlaneFillColor=#ffffff;align=left;spacingLeft=5;" vertex="1" parent="MGFyyczxm6EWQLgQ8d5Q-28">
          <mxGeometry width="140" height="70" relative="1" as="geometry">
            <mxPoint x="20" y="50" as="offset" />
          </mxGeometry>
        </mxCell>
        <mxCell id="MGFyyczxm6EWQLgQ8d5Q-30" value="Interaction1" style="text;align=left;" vertex="1" parent="MGFyyczxm6EWQLgQ8d5Q-29">
          <mxGeometry width="100" height="20" relative="1" as="geometry">
            <mxPoint x="10" y="40" as="offset" />
          </mxGeometry>
        </mxCell>
        <mxCell id="MGFyyczxm6EWQLgQ8d5Q-31" value="" style="fontStyle=1;align=center;verticalAlign=top;childLayout=stackLayout;horizontal=1;horizontalStack=0;resizeParent=1;resizeParentMax=0;resizeLast=0;marginBottom=0;" vertex="1" parent="1">
          <mxGeometry x="580" y="730" width="160" height="88" as="geometry" />
        </mxCell>
        <mxCell id="MGFyyczxm6EWQLgQ8d5Q-32" value="UseCase1" style="html=1;align=left;spacingLeft=4;verticalAlign=middle;strokeColor=none;fillColor=none;fontStyle=1" vertex="1" parent="MGFyyczxm6EWQLgQ8d5Q-31">
          <mxGeometry width="160" height="30" as="geometry" />
        </mxCell>
        <mxCell id="MGFyyczxm6EWQLgQ8d5Q-33" value="" style="shape=ellipse;" vertex="1" parent="MGFyyczxm6EWQLgQ8d5Q-32">
          <mxGeometry x="1" width="20" height="16" relative="1" as="geometry">
            <mxPoint x="-25" y="7" as="offset" />
          </mxGeometry>
        </mxCell>
        <mxCell id="MGFyyczxm6EWQLgQ8d5Q-34" value="" style="line;strokeWidth=1;fillColor=none;align=left;verticalAlign=middle;spacingTop=-1;spacingLeft=3;spacingRight=3;rotatable=0;labelPosition=right;points=[];portConstraint=eastwest;" vertex="1" parent="MGFyyczxm6EWQLgQ8d5Q-31">
          <mxGeometry y="30" width="160" height="8" as="geometry" />
        </mxCell>
        <mxCell id="MGFyyczxm6EWQLgQ8d5Q-35" value="extension points" style="html=1;align=center;spacingLeft=4;verticalAlign=top;strokeColor=none;fillColor=none;" vertex="1" parent="MGFyyczxm6EWQLgQ8d5Q-31">
          <mxGeometry y="38" width="160" height="25" as="geometry" />
        </mxCell>
        <mxCell id="MGFyyczxm6EWQLgQ8d5Q-36" value="Extension point 1" style="html=1;align=left;spacingLeft=4;verticalAlign=top;strokeColor=none;fillColor=none;" vertex="1" parent="MGFyyczxm6EWQLgQ8d5Q-31">
          <mxGeometry y="63" width="160" height="25" as="geometry" />
        </mxCell>
        <mxCell id="MGFyyczxm6EWQLgQ8d5Q-37" value="adad&amp;nbsp;" style="html=1;shape=mxgraph.infographic.ribbonSimple;notch1=0;notch2=20;align=center;verticalAlign=middle;fontSize=14;fontStyle=0;fillColor=#FFFFFF;" vertex="1" parent="1">
          <mxGeometry x="35" y="660" width="160" height="40" as="geometry" />
        </mxCell>
        <mxCell id="MGFyyczxm6EWQLgQ8d5Q-38" value="" style="html=1;dashed=0;whitespace=wrap;shape=mxgraph.dfd.externalEntity" vertex="1" parent="1">
          <mxGeometry x="98" y="520" width="100" height="100" as="geometry" />
        </mxCell>
        <mxCell id="MGFyyczxm6EWQLgQ8d5Q-39" value="Id" style="autosize=1;part=1;resizable=0;strokeColor=inherit;fillColor=inherit;gradientColor=inherit;" vertex="1" parent="MGFyyczxm6EWQLgQ8d5Q-38">
          <mxGeometry width="20" height="20" relative="1" as="geometry">
            <mxPoint x="15" y="15" as="offset" />
          </mxGeometry>
        </mxCell>
        <mxCell id="MGFyyczxm6EWQLgQ8d5Q-40" value="" style="shape=mxgraph.cisco.computers_and_peripherals.ibm_mainframe;sketch=0;html=1;pointerEvents=1;dashed=0;fillColor=#036897;strokeColor=#ffffff;strokeWidth=2;verticalLabelPosition=bottom;verticalAlign=top;align=center;outlineConnect=0;" vertex="1" parent="1">
          <mxGeometry x="178" y="730" width="50" height="70" as="geometry" />
        </mxCell>
        <mxCell id="MGFyyczxm6EWQLgQ8d5Q-41" value="" style="shape=mxgraph.cisco.computers_and_peripherals.laptop;sketch=0;html=1;pointerEvents=1;dashed=0;fillColor=#036897;strokeColor=#ffffff;strokeWidth=2;verticalLabelPosition=bottom;verticalAlign=top;align=center;outlineConnect=0;" vertex="1" parent="1">
          <mxGeometry x="30" y="734" width="90" height="61" as="geometry" />
        </mxCell>
        <mxCell id="MGFyyczxm6EWQLgQ8d5Q-44" value="政务云" style="shape=mxgraph.cisco.storage.cloud;sketch=0;html=1;pointerEvents=1;dashed=0;fillColor=#66B2FF;strokeColor=#ffffff;strokeWidth=2;verticalLabelPosition=bottom;verticalAlign=top;align=center;outlineConnect=0;" vertex="1" parent="1">
          <mxGeometry x="593" y="500" width="186" height="106" as="geometry" />
        </mxCell>
        <mxCell id="MGFyyczxm6EWQLgQ8d5Q-45" value="" style="outlineConnect=0;dashed=0;verticalLabelPosition=bottom;verticalAlign=top;align=center;html=1;shape=mxgraph.aws3.internet_gateway;fillColor=#F58534;gradientColor=none;" vertex="1" parent="1">
          <mxGeometry x="80" y="380" width="69" height="72" as="geometry" />
        </mxCell>
        <mxCell id="MGFyyczxm6EWQLgQ8d5Q-46" value="" style="outlineConnect=0;dashed=0;verticalLabelPosition=bottom;verticalAlign=top;align=center;html=1;shape=mxgraph.aws3.vpc_nat_gateway;fillColor=#FFCCCC;gradientColor=none;" vertex="1" parent="1">
          <mxGeometry x="178" y="353" width="69" height="72" as="geometry" />
        </mxCell>
        <mxCell id="MGFyyczxm6EWQLgQ8d5Q-47" value="" style="sketch=0;outlineConnect=0;fontColor=#232F3E;gradientColor=none;fillColor=#CCCCCC;strokeColor=none;dashed=0;verticalLabelPosition=bottom;verticalAlign=top;align=center;html=1;fontSize=12;fontStyle=0;aspect=fixed;pointerEvents=1;shape=mxgraph.aws4.nat_gateway;" vertex="1" parent="1">
          <mxGeometry x="872" y="730" width="78" height="78" as="geometry" />
        </mxCell>
        <mxCell id="MGFyyczxm6EWQLgQ8d5Q-49" value="Vertical Flow Layout" style="swimlane;startSize=20;horizontal=1;childLayout=flowLayout;flowOrientation=north;resizable=0;interRankCellSpacing=50;containerType=tree;fillColor=#CCCCCC;" vertex="1" parent="1">
          <mxGeometry x="809" y="15" width="530" height="460" as="geometry" />
        </mxCell>
        <mxCell id="MGFyyczxm6EWQLgQ8d5Q-50" value="Start" style="whiteSpace=wrap;html=1;fillColor=#CCCCCC;" vertex="1" parent="MGFyyczxm6EWQLgQ8d5Q-49">
          <mxGeometry x="215" y="40" width="100" height="40" as="geometry" />
        </mxCell>
        <mxCell id="MGFyyczxm6EWQLgQ8d5Q-51" value="Task" style="whiteSpace=wrap;html=1;fillColor=#CCCCCC;" vertex="1" parent="MGFyyczxm6EWQLgQ8d5Q-49">
          <mxGeometry x="20" y="130" width="100" height="40" as="geometry" />
        </mxCell>
        <mxCell id="MGFyyczxm6EWQLgQ8d5Q-52" value="" style="html=1;curved=1;rounded=0;noEdgeStyle=1;orthogonal=1;" edge="1" parent="MGFyyczxm6EWQLgQ8d5Q-49" source="MGFyyczxm6EWQLgQ8d5Q-50" target="MGFyyczxm6EWQLgQ8d5Q-51">
          <mxGeometry relative="1" as="geometry">
            <Array as="points">
              <mxPoint x="231.25" y="92" />
              <mxPoint x="70" y="118" />
            </Array>
          </mxGeometry>
        </mxCell>
        <mxCell id="MGFyyczxm6EWQLgQ8d5Q-53" value="Task" style="whiteSpace=wrap;html=1;fillColor=#CCCCCC;" vertex="1" parent="MGFyyczxm6EWQLgQ8d5Q-49">
          <mxGeometry x="150" y="130" width="100" height="40" as="geometry" />
        </mxCell>
        <mxCell id="MGFyyczxm6EWQLgQ8d5Q-54" value="" style="html=1;curved=1;rounded=0;noEdgeStyle=1;orthogonal=1;" edge="1" parent="MGFyyczxm6EWQLgQ8d5Q-49" source="MGFyyczxm6EWQLgQ8d5Q-50" target="MGFyyczxm6EWQLgQ8d5Q-53">
          <mxGeometry relative="1" as="geometry">
            <Array as="points">
              <mxPoint x="253.75" y="94" />
              <mxPoint x="200" y="118" />
            </Array>
          </mxGeometry>
        </mxCell>
        <mxCell id="MGFyyczxm6EWQLgQ8d5Q-55" value="End" style="whiteSpace=wrap;html=1;fillColor=#CCCCCC;" vertex="1" parent="MGFyyczxm6EWQLgQ8d5Q-49">
          <mxGeometry x="85" y="220" width="100" height="40" as="geometry" />
        </mxCell>
        <mxCell id="MGFyyczxm6EWQLgQ8d5Q-56" value="" style="html=1;curved=1;rounded=0;noEdgeStyle=1;orthogonal=1;" edge="1" parent="MGFyyczxm6EWQLgQ8d5Q-49" source="MGFyyczxm6EWQLgQ8d5Q-51" target="MGFyyczxm6EWQLgQ8d5Q-55">
          <mxGeometry relative="1" as="geometry">
            <Array as="points">
              <mxPoint x="70" y="182" />
              <mxPoint x="112.5" y="208" />
            </Array>
          </mxGeometry>
        </mxCell>
        <mxCell id="MGFyyczxm6EWQLgQ8d5Q-57" value="" style="html=1;curved=1;rounded=0;noEdgeStyle=1;orthogonal=1;" edge="1" parent="MGFyyczxm6EWQLgQ8d5Q-49" source="MGFyyczxm6EWQLgQ8d5Q-53" target="MGFyyczxm6EWQLgQ8d5Q-55">
          <mxGeometry relative="1" as="geometry">
            <Array as="points">
              <mxPoint x="200" y="182" />
              <mxPoint x="157.5" y="208" />
            </Array>
          </mxGeometry>
        </mxCell>
        <mxCell id="MGFyyczxm6EWQLgQ8d5Q-58" value="Task" style="whiteSpace=wrap;html=1;fillColor=#CCCCCC;" vertex="1" parent="MGFyyczxm6EWQLgQ8d5Q-49">
          <mxGeometry x="280" y="130" width="100" height="40" as="geometry" />
        </mxCell>
        <mxCell id="MGFyyczxm6EWQLgQ8d5Q-59" value="" style="html=1;curved=1;rounded=0;noEdgeStyle=1;orthogonal=1;" edge="1" parent="MGFyyczxm6EWQLgQ8d5Q-49" source="MGFyyczxm6EWQLgQ8d5Q-50" target="MGFyyczxm6EWQLgQ8d5Q-58">
          <mxGeometry relative="1" as="geometry">
            <mxPoint x="337.5" y="440" as="sourcePoint" />
            <mxPoint x="380" y="490" as="targetPoint" />
            <Array as="points">
              <mxPoint x="276.25" y="94" />
              <mxPoint x="330" y="118" />
            </Array>
          </mxGeometry>
        </mxCell>
        <mxCell id="MGFyyczxm6EWQLgQ8d5Q-60" value="Task" style="whiteSpace=wrap;html=1;fillColor=#CCCCCC;" vertex="1" parent="MGFyyczxm6EWQLgQ8d5Q-49">
          <mxGeometry x="410" y="130" width="100" height="40" as="geometry" />
        </mxCell>
        <mxCell id="MGFyyczxm6EWQLgQ8d5Q-61" value="" style="html=1;curved=1;rounded=0;noEdgeStyle=1;orthogonal=1;" edge="1" parent="MGFyyczxm6EWQLgQ8d5Q-49" source="MGFyyczxm6EWQLgQ8d5Q-50" target="MGFyyczxm6EWQLgQ8d5Q-60">
          <mxGeometry relative="1" as="geometry">
            <mxPoint x="390" y="400" as="sourcePoint" />
            <mxPoint x="490" y="450" as="targetPoint" />
            <Array as="points">
              <mxPoint x="298.75" y="92" />
              <mxPoint x="460" y="118" />
            </Array>
          </mxGeometry>
        </mxCell>
        <mxCell id="MGFyyczxm6EWQLgQ8d5Q-64" value="" style="html=1;curved=1;rounded=0;noEdgeStyle=1;orthogonal=1;" edge="1" target="MGFyyczxm6EWQLgQ8d5Q-65" source="MGFyyczxm6EWQLgQ8d5Q-58" parent="MGFyyczxm6EWQLgQ8d5Q-49">
          <mxGeometry relative="1" as="geometry">
            <mxPoint x="1225.25" y="375" as="sourcePoint" />
            <mxPoint x="380" y="490" as="targetPoint" />
            <Array as="points">
              <mxPoint x="307.5" y="182" />
              <mxPoint x="265" y="208" />
            </Array>
          </mxGeometry>
        </mxCell>
        <mxCell id="MGFyyczxm6EWQLgQ8d5Q-70" style="edgeStyle=orthogonalEdgeStyle;rounded=0;orthogonalLoop=1;jettySize=auto;html=1;exitX=0.5;exitY=1;exitDx=0;exitDy=0;entryX=0.75;entryY=0;entryDx=0;entryDy=0;orthogonal=1;curved=1;noEdgeStyle=1;" edge="1" parent="MGFyyczxm6EWQLgQ8d5Q-49" source="MGFyyczxm6EWQLgQ8d5Q-65" target="MGFyyczxm6EWQLgQ8d5Q-69">
          <mxGeometry relative="1" as="geometry">
            <Array as="points">
              <mxPoint x="265" y="272" />
              <mxPoint x="251.25" y="298" />
            </Array>
          </mxGeometry>
        </mxCell>
        <mxCell id="MGFyyczxm6EWQLgQ8d5Q-65" value="Task" style="whiteSpace=wrap;html=1;fillColor=#CCCCCC;" vertex="1" parent="MGFyyczxm6EWQLgQ8d5Q-49">
          <mxGeometry x="215" y="220" width="100" height="40" as="geometry" />
        </mxCell>
        <mxCell id="MGFyyczxm6EWQLgQ8d5Q-66" value="" style="html=1;curved=1;rounded=0;noEdgeStyle=1;orthogonal=1;" edge="1" target="MGFyyczxm6EWQLgQ8d5Q-67" source="MGFyyczxm6EWQLgQ8d5Q-58" parent="MGFyyczxm6EWQLgQ8d5Q-49">
          <mxGeometry relative="1" as="geometry">
            <mxPoint x="1205.25" y="335" as="sourcePoint" />
            <mxPoint x="380" y="490" as="targetPoint" />
            <Array as="points">
              <mxPoint x="352.5" y="182" />
              <mxPoint x="395" y="208" />
            </Array>
          </mxGeometry>
        </mxCell>
        <mxCell id="MGFyyczxm6EWQLgQ8d5Q-67" value="Task" style="whiteSpace=wrap;html=1;fillColor=#CCCCCC;" vertex="1" parent="MGFyyczxm6EWQLgQ8d5Q-49">
          <mxGeometry x="345" y="220" width="100" height="40" as="geometry" />
        </mxCell>
        <mxCell id="MGFyyczxm6EWQLgQ8d5Q-68" value="" style="html=1;curved=1;rounded=0;noEdgeStyle=1;orthogonal=1;" edge="1" target="MGFyyczxm6EWQLgQ8d5Q-69" source="MGFyyczxm6EWQLgQ8d5Q-55" parent="MGFyyczxm6EWQLgQ8d5Q-49">
          <mxGeometry relative="1" as="geometry">
            <mxPoint x="979" y="385" as="sourcePoint" />
            <Array as="points">
              <mxPoint x="135" y="272" />
              <mxPoint x="206.25" y="298" />
            </Array>
          </mxGeometry>
        </mxCell>
        <mxCell id="MGFyyczxm6EWQLgQ8d5Q-73" style="edgeStyle=orthogonalEdgeStyle;curved=1;rounded=0;orthogonalLoop=1;jettySize=auto;html=1;entryX=0;entryY=0.5;entryDx=0;entryDy=0;noEdgeStyle=1;orthogonal=1;" edge="1" parent="MGFyyczxm6EWQLgQ8d5Q-49" source="MGFyyczxm6EWQLgQ8d5Q-69" target="MGFyyczxm6EWQLgQ8d5Q-72">
          <mxGeometry relative="1" as="geometry">
            <Array as="points">
              <mxPoint x="228.75" y="362" />
              <mxPoint x="262.1875" y="388" />
            </Array>
          </mxGeometry>
        </mxCell>
        <mxCell id="MGFyyczxm6EWQLgQ8d5Q-69" value="End" style="whiteSpace=wrap;html=1;fillColor=#CCCCCC;" vertex="1" parent="MGFyyczxm6EWQLgQ8d5Q-49">
          <mxGeometry x="178.75" y="310" width="100" height="40" as="geometry" />
        </mxCell>
        <mxCell id="MGFyyczxm6EWQLgQ8d5Q-71" value="" style="html=1;curved=1;rounded=0;noEdgeStyle=1;orthogonal=1;" edge="1" target="MGFyyczxm6EWQLgQ8d5Q-72" source="MGFyyczxm6EWQLgQ8d5Q-67" parent="MGFyyczxm6EWQLgQ8d5Q-49">
          <mxGeometry relative="1" as="geometry">
            <mxPoint x="1201.5" y="265" as="sourcePoint" />
            <mxPoint x="380" y="490" as="targetPoint" />
            <Array as="points">
              <mxPoint x="395" y="272" />
              <mxPoint x="340.625" y="285" />
              <mxPoint x="340.625" y="375" />
              <mxPoint x="307.1875" y="388" />
            </Array>
          </mxGeometry>
        </mxCell>
        <mxCell id="MGFyyczxm6EWQLgQ8d5Q-72" value="Task" style="whiteSpace=wrap;html=1;fillColor=#CCCCCC;" vertex="1" parent="MGFyyczxm6EWQLgQ8d5Q-49">
          <mxGeometry x="234.6875" y="400" width="100" height="40" as="geometry" />
        </mxCell>
      </root>
    </mxGraphModel>
  </diagram>
</mxfile>
